<?xml version="1.0" encoding="UTF-8" standalone="no"?>
<svg
   xmlns:dc="http://purl.org/dc/elements/1.1/"
   xmlns:cc="http://creativecommons.org/ns#"
   xmlns:rdf="http://www.w3.org/1999/02/22-rdf-syntax-ns#"
   xmlns:svg="http://www.w3.org/2000/svg"
   xmlns="http://www.w3.org/2000/svg"
   xmlns:sodipodi="http://sodipodi.sourceforge.net/DTD/sodipodi-0.dtd"
   xmlns:inkscape="http://www.inkscape.org/namespaces/inkscape"
   width="75.568573mm"
   height="75.568573mm"
   viewBox="0 0 75.568573 75.568573"
   version="1.1"
   id="svg8"
   inkscape:version="1.0 (4035a4fb49, 2020-05-01)"
   sodipodi:docname="con_denunciante.svg">
  <defs
     id="defs2">
    <inkscape:perspective
       sodipodi:type="inkscape:persp3d"
       inkscape:vp_x="-15.033913 : -215.04514 : 1"
       inkscape:vp_y="0 : 1000 : 0"
       inkscape:vp_z="-0.68520772 : -215.04514 : 1"
       inkscape:persp3d-origin="-7.8595596 : -217.1162 : 1"
       id="perspective873" />
  </defs>
  <sodipodi:namedview
     id="base"
     pagecolor="#ffffff"
     bordercolor="#666666"
     borderopacity="1.0"
     inkscape:pageopacity="0.0"
     inkscape:pageshadow="2"
     inkscape:zoom="0.98994951"
     inkscape:cx="-241.79883"
     inkscape:cy="241.30448"
     inkscape:document-units="mm"
     inkscape:current-layer="g69"
     inkscape:document-rotation="0"
     showgrid="false"
     fit-margin-top="0"
     fit-margin-left="0"
     fit-margin-right="0"
     fit-margin-bottom="0"
     inkscape:window-width="1920"
     inkscape:window-height="1017"
     inkscape:window-x="-8"
     inkscape:window-y="-8"
     inkscape:window-maximized="1" />
  <metadata
     id="metadata5">
    <rdf:RDF>
      <cc:Work
         rdf:about="">
        <dc:format>image/svg+xml</dc:format>
        <dc:type
           rdf:resource="http://purl.org/dc/dcmitype/StillImage" />
        <dc:title />
      </cc:Work>
    </rdf:RDF>
  </metadata>
  <g
     inkscape:label="Capa 1"
     inkscape:groupmode="layer"
     id="layer1"
     transform="translate(-77.27166,-94.053833)">
    <g
       id="g69"
       transform="matrix(0.26458333,0,0,0.26458333,109.61463,118.63737)"
       style="stroke:#65bd42;stroke-width:1.00157;stroke-miterlimit:4;stroke-dasharray:none;stroke-opacity:1">
      <rect
         style="fill:#d6e7c2;fill-opacity:1;stroke:#65bd42;stroke-width:7.80473;stroke-miterlimit:4;stroke-dasharray:none;stroke-opacity:1"
         id="rect912"
         width="146.97719"
         height="146.97719"
         x="-52.922985"
         y="-23.595993"
         rx="73.488594"
         ry="73.488594" />
      <g
         transform="matrix(4.2726887,0,0,4.2726887,-19.336104,-2.6414569)"
         id="g29"
         style="fill:#000000;stroke:none">
        <path
           style="stroke:none"
           d="M 0,0 H 24 V 24 H 0 Z"
           fill="none"
           id="path15" />
        <path
           style="fill:#65bd42;fill-opacity:1;stroke:none"
           d="m 12,2 c 1.1,0 2,0.9 2,2 0,1.1 -0.9,2 -2,2 -1.1,0 -2,-0.9 -2,-2 0,-1.1 0.9,-2 2,-2 z m 9,7 h -6 v 13 h -2 v -6 h -2 v 6 H 9 V 9 H 3 V 7 h 18 z"
           id="path17" />
      </g>
      <g
         transform="matrix(1.8813511,0,0,1.8813511,-33.820948,13.145063)"
         id="g868"
         style="fill:#000000;stroke:none">
        <rect
           style="stroke:none"
           y="0"
           x="0"
           fill="none"
           height="24"
           width="24"
           id="rect854" />
        <path
           style="fill:#65bd42;fill-opacity:1;stroke:none"
           d="M 19,3 H 4.99 C 3.89,3 3,3.9 3,5 l 0.01,14 c 0,1.1 0.89,2 1.99,2 h 10 l 6,-6 V 5 C 21,3.9 20.1,3 19,3 Z M 7,8 h 10 v 2 H 7 Z m 5,6 H 7 v -2 h 5 z m 2,5.5 V 14 h 5.5 z"
           id="path856" />
      </g>
    </g>
    <circle
       style="fill:none;fill-opacity:1;stroke:#65bd42;stroke-width:5.265;stroke-miterlimit:4;stroke-dasharray:none;stroke-opacity:1"
       id="path928"
       cx="115.05595"
       cy="131.83812"
       r="35.151787" />
  </g>
</svg>
