<?xml version="1.0" encoding="UTF-8" standalone="no"?>
<svg
   xmlns:dc="http://purl.org/dc/elements/1.1/"
   xmlns:cc="http://creativecommons.org/ns#"
   xmlns:rdf="http://www.w3.org/1999/02/22-rdf-syntax-ns#"
   xmlns:svg="http://www.w3.org/2000/svg"
   xmlns="http://www.w3.org/2000/svg"
   xmlns:sodipodi="http://sodipodi.sourceforge.net/DTD/sodipodi-0.dtd"
   xmlns:inkscape="http://www.inkscape.org/namespaces/inkscape"
   sodipodi:docname="con_denunciado_icon.svg"
   inkscape:version="1.0 (4035a4fb49, 2020-05-01)"
   id="svg8"
   version="1.1"
   viewBox="0 0 89.817841 87.172012"
   height="87.172012mm"
   width="89.817841mm">
  <defs
     id="defs2">
    <inkscape:perspective
       id="perspective873"
       inkscape:persp3d-origin="-7.8595596 : -205.51275 : 1"
       inkscape:vp_z="-0.68520772 : -203.44169 : 1"
       inkscape:vp_y="0 : 999.99996 : 0"
       inkscape:vp_x="-15.033913 : -203.44169 : 1"
       sodipodi:type="inkscape:persp3d" />
    <filter
       height="1.0157311"
       y="-0.0078655633"
       width="1.0152565"
       x="-0.0076282407"
       id="filter1189"
       style="color-interpolation-filters:sRGB"
       inkscape:collect="always">
      <feGaussianBlur
         id="feGaussianBlur1191"
         stdDeviation="0.27871833"
         inkscape:collect="always" />
    </filter>
  </defs>
  <sodipodi:namedview
     inkscape:guide-bbox="true"
     showguides="true"
     inkscape:window-maximized="1"
     inkscape:window-y="-8"
     inkscape:window-x="-8"
     inkscape:window-height="1017"
     inkscape:window-width="1920"
     fit-margin-bottom="0"
     fit-margin-right="0"
     fit-margin-left="0"
     fit-margin-top="0"
     showgrid="false"
     inkscape:document-rotation="0"
     inkscape:current-layer="g69"
     inkscape:document-units="mm"
     inkscape:cy="292.96669"
     inkscape:cx="-52.151978"
     inkscape:zoom="0.9899495"
     inkscape:pageshadow="2"
     inkscape:pageopacity="0.0"
     borderopacity="1.0"
     bordercolor="#666666"
     pagecolor="#ffffff"
     id="base" />
  <metadata
     id="metadata5">
    <rdf:RDF>
      <cc:Work
         rdf:about="">
        <dc:format>image/svg+xml</dc:format>
        <dc:type
           rdf:resource="http://purl.org/dc/dcmitype/StillImage" />
        <dc:title />
      </cc:Work>
    </rdf:RDF>
  </metadata>
  <g
     transform="translate(0.89916598,27.206273)"
     id="layer1"
     inkscape:groupmode="layer"
     inkscape:label="Capa 1">
    <rect
       ry="4.543582"
       y="-26.14259"
       x="0.16451749"
       height="85.04464"
       width="87.690468"
       id="rect12"
       style="fill:none;stroke:#65bd42;stroke-width:3.265;stroke-miterlimit:4;stroke-dasharray:none;stroke-opacity:1;filter:url(#filter1189)" />
    <g
       style="stroke:#65bd42;stroke-width:1.00157;stroke-miterlimit:4;stroke-dasharray:none;stroke-opacity:1"
       transform="matrix(0.411357,0,0,0.411357,36.894866,-4.7556874)"
       id="g69">
      <rect
         ry="73.488594"
         rx="73.488594"
         y="-22.108852"
         x="-56.192455"
         height="146.97719"
         width="146.97719"
         id="rect912"
         style="fill:#d6e7c2;fill-opacity:1;stroke:#65bd42;stroke-width:7.80472;stroke-miterlimit:4;stroke-dasharray:none;stroke-opacity:1" />
      <g
         transform="matrix(4.0709048,0,0,4.0709048,-50.563112,10.060395)"
         id="g29"
         style="fill:#000000;stroke:none;stroke-width:1.00157;stroke-miterlimit:4;stroke-dasharray:none;stroke-opacity:1">
        <path
           style="stroke:none"
           d="M 0,0 H 24 V 24 H 0 Z"
           fill="none"
           id="path15" />
        <path
           style="fill:#65bd42;fill-opacity:1;stroke:none"
           d="m 12,2 c 1.1,0 2,0.9 2,2 0,1.1 -0.9,2 -2,2 -1.1,0 -2,-0.9 -2,-2 0,-1.1 0.9,-2 2,-2 z m 9,7 h -6 v 13 h -2 v -6 h -2 v 6 H 9 V 9 H 3 V 7 h 18 z"
           id="path17" />
      </g>
      <g
         style="fill:#000000;stroke:none;stroke-width:1.00157;stroke-miterlimit:4;stroke-dasharray:none;stroke-opacity:1"
         id="g51"
         transform="matrix(0,-0.95277354,0.95277354,0,34.925886,46.698538)">
        <g
           id="g33"
           style="stroke:none">
          <rect
             id="rect31"
             width="24"
             height="24"
             fill="none"
             x="0"
             y="0"
             style="stroke:none" />
        </g>
        <g
           id="g37"
           style="stroke:none">
          <path
             id="path35"
             d="m 36.023924,22.076159 -1.515025,10.725414 c -0.336672,2.380754 -2.380753,4.136259 -4.761506,4.136259 H 14.933816 c -1.274544,0 -3.102194,-0.505009 -3.99197,-1.418833 L 0,24 1.995985,21.979967 c 0.577152,-0.577152 1.394785,-0.84168 2.212417,-0.673344 l 7.815605,1.779553 V -2.7413909 c 0,-1.9959852 1.611216,-3.6072021 3.607202,-3.6072021 1.995985,0 3.607202,1.6112169 3.607202,3.6072021 V 11.687417 h 2.188369 c 0.745488,0 1.490977,0.168336 2.140273,0.505009 l 9.835638,4.905794 c 1.851697,0.937873 2.909809,2.933858 2.621233,4.977939 z"
             style="fill:#65bd42;fill-opacity:1;stroke:none;stroke-width:2.40858" />
        </g>
      </g>
    </g>
  </g>
</svg>
