<?xml version="1.0" encoding="UTF-8" standalone="no"?>
<svg
   xmlns:dc="http://purl.org/dc/elements/1.1/"
   xmlns:cc="http://creativecommons.org/ns#"
   xmlns:rdf="http://www.w3.org/1999/02/22-rdf-syntax-ns#"
   xmlns:svg="http://www.w3.org/2000/svg"
   xmlns="http://www.w3.org/2000/svg"
   xmlns:sodipodi="http://sodipodi.sourceforge.net/DTD/sodipodi-0.dtd"
   xmlns:inkscape="http://www.inkscape.org/namespaces/inkscape"
   width="75.568573mm"
   height="75.568573mm"
   viewBox="0 0 75.568573 75.568573"
   version="1.1"
   id="svg8"
   inkscape:version="1.0 (4035a4fb49, 2020-05-01)"
   sodipodi:docname="con_denunciado.svg">
  <defs
     id="defs2">
    <inkscape:perspective
       sodipodi:type="inkscape:persp3d"
       inkscape:vp_x="-15.033913 : -215.04514 : 1"
       inkscape:vp_y="0 : 1000 : 0"
       inkscape:vp_z="-0.68520772 : -215.04514 : 1"
       inkscape:persp3d-origin="-7.8595596 : -217.1162 : 1"
       id="perspective873" />
  </defs>
  <sodipodi:namedview
     id="base"
     pagecolor="#ffffff"
     bordercolor="#666666"
     borderopacity="1.0"
     inkscape:pageopacity="0.0"
     inkscape:pageshadow="2"
     inkscape:zoom="1.4"
     inkscape:cx="206.96907"
     inkscape:cy="272.69308"
     inkscape:document-units="mm"
     inkscape:current-layer="g38"
     inkscape:document-rotation="0"
     showgrid="false"
     fit-margin-top="0"
     fit-margin-left="0"
     fit-margin-right="0"
     fit-margin-bottom="0"
     inkscape:window-width="1920"
     inkscape:window-height="1017"
     inkscape:window-x="-8"
     inkscape:window-y="-8"
     inkscape:window-maximized="1" />
  <metadata
     id="metadata5">
    <rdf:RDF>
      <cc:Work
         rdf:about="">
        <dc:format>image/svg+xml</dc:format>
        <dc:type
           rdf:resource="http://purl.org/dc/dcmitype/StillImage" />
        <dc:title />
      </cc:Work>
    </rdf:RDF>
  </metadata>
  <g
     inkscape:label="Capa 1"
     inkscape:groupmode="layer"
     id="layer1"
     transform="translate(-77.27166,-94.053833)">
    <g
       id="g69"
       transform="matrix(0.26458333,0,0,0.26458333,109.61463,118.63737)"
       style="stroke:#65bd42;stroke-width:1.00157;stroke-miterlimit:4;stroke-dasharray:none;stroke-opacity:1">
      <rect
         style="fill:#d6e7c2;fill-opacity:1;stroke:#65bd42;stroke-width:7.80472;stroke-miterlimit:4;stroke-dasharray:none;stroke-opacity:1"
         id="rect912"
         width="146.97719"
         height="146.97719"
         x="-52.922989"
         y="-23.595997"
         rx="73.488594"
         ry="73.488594" />
      <g
         style="fill:#000000"
         id="g38"
         transform="matrix(3.7272406,0,0,3.7272406,-25.799227,8.0734594)">
        <g
           style="fill:#000000;stroke:none;stroke-width:1.00157;stroke-miterlimit:4;stroke-dasharray:none;stroke-opacity:1"
           id="g29"
           transform="matrix(1.146341,0,0,1.146341,-7.4088647,-0.98959333)">
          <path
             id="path15"
             fill="none"
             d="M 0,0 H 24 V 24 H 0 Z"
             style="stroke:none" />
          <path
             id="path17"
             d="m 12,2 c 1.1,0 2,0.9 2,2 0,1.1 -0.9,2 -2,2 -1.1,0 -2,-0.9 -2,-2 0,-1.1 0.9,-2 2,-2 z m 9,7 h -6 v 13 h -2 v -6 h -2 v 6 H 9 V 9 H 3 V 7 h 18 z"
             style="fill:#65bd42;fill-opacity:1;stroke:none" />
        </g>
        <g
           transform="matrix(0,-0.268295,0.268295,0,16.664296,9.3274757)"
           id="g51"
           style="fill:#000000;stroke:none">
          <g
             style="stroke:none"
             id="g33">
            <rect
               style="stroke:none"
               y="0"
               x="0"
               fill="none"
               height="24"
               width="24"
               id="rect31" />
          </g>
          <g
             style="stroke:none"
             id="g37">
            <path
               style="fill:#65bd42;fill-opacity:1;stroke:none;stroke-width:2.40858"
               d="m 36.023924,22.076159 -1.515025,10.725414 c -0.336672,2.380754 -2.380753,4.136259 -4.761506,4.136259 H 14.933816 c -1.274544,0 -3.102194,-0.505009 -3.99197,-1.418833 L 0,24 1.995985,21.979967 c 0.577152,-0.577152 1.394785,-0.84168 2.212417,-0.673344 l 7.815605,1.779553 V -2.7413909 c 0,-1.9959852 1.611216,-3.6072021 3.607202,-3.6072021 1.995985,0 3.607202,1.6112169 3.607202,3.6072021 V 11.687417 h 2.188369 c 0.745488,0 1.490977,0.168336 2.140273,0.505009 l 9.835638,4.905794 c 1.851697,0.937873 2.909809,2.933858 2.621233,4.977939 z"
               id="path35" />
          </g>
        </g>
      </g>
    </g>
    <circle
       style="fill:none;fill-opacity:1;stroke:#65bd42;stroke-width:5.265;stroke-miterlimit:4;stroke-dasharray:none;stroke-opacity:1"
       id="path928"
       cx="115.05595"
       cy="131.83812"
       r="35.151787" />
  </g>
</svg>
