<?xml version="1.0" encoding="UTF-8" standalone="no"?>
<svg
   xmlns:dc="http://purl.org/dc/elements/1.1/"
   xmlns:cc="http://creativecommons.org/ns#"
   xmlns:rdf="http://www.w3.org/1999/02/22-rdf-syntax-ns#"
   xmlns:svg="http://www.w3.org/2000/svg"
   xmlns="http://www.w3.org/2000/svg"
   xmlns:sodipodi="http://sodipodi.sourceforge.net/DTD/sodipodi-0.dtd"
   xmlns:inkscape="http://www.inkscape.org/namespaces/inkscape"
   sodipodi:docname="con_certificado_icon.svg"
   inkscape:version="1.0 (4035a4fb49, 2020-05-01)"
   id="svg8"
   version="1.1"
   viewBox="0 0 89.817841 87.172012"
   height="87.172012mm"
   width="89.817841mm">
  <defs
     id="defs2">
    <inkscape:perspective
       id="perspective873"
       inkscape:persp3d-origin="-7.8595596 : -205.51275 : 1"
       inkscape:vp_z="-0.68520772 : -203.44169 : 1"
       inkscape:vp_y="0 : 999.99996 : 0"
       inkscape:vp_x="-15.033913 : -203.44169 : 1"
       sodipodi:type="inkscape:persp3d" />
    <filter
       height="1.0157311"
       y="-0.0078655633"
       width="1.0152565"
       x="-0.0076282407"
       id="filter1189"
       style="color-interpolation-filters:sRGB"
       inkscape:collect="always">
      <feGaussianBlur
         id="feGaussianBlur1191"
         stdDeviation="0.27871833"
         inkscape:collect="always" />
    </filter>
  </defs>
  <sodipodi:namedview
     inkscape:guide-bbox="true"
     showguides="true"
     inkscape:window-maximized="1"
     inkscape:window-y="-8"
     inkscape:window-x="-8"
     inkscape:window-height="1017"
     inkscape:window-width="1920"
     fit-margin-bottom="0"
     fit-margin-right="0"
     fit-margin-left="0"
     fit-margin-top="0"
     showgrid="false"
     inkscape:document-rotation="0"
     inkscape:current-layer="layer1"
     inkscape:document-units="mm"
     inkscape:cy="292.96669"
     inkscape:cx="106.44197"
     inkscape:zoom="0.9899495"
     inkscape:pageshadow="2"
     inkscape:pageopacity="0.0"
     borderopacity="1.0"
     bordercolor="#666666"
     pagecolor="#ffffff"
     id="base" />
  <metadata
     id="metadata5">
    <rdf:RDF>
      <cc:Work
         rdf:about="">
        <dc:format>image/svg+xml</dc:format>
        <dc:type
           rdf:resource="http://purl.org/dc/dcmitype/StillImage" />
        <dc:title />
      </cc:Work>
    </rdf:RDF>
  </metadata>
  <g
     transform="translate(0.89916598,27.206273)"
     id="layer1"
     inkscape:groupmode="layer"
     inkscape:label="Capa 1">
    <rect
       ry="4.543582"
       y="-26.14259"
       x="0.16451749"
       height="85.04464"
       width="87.690468"
       id="rect12"
       style="fill:none;stroke:#65bd42;stroke-width:3.265;stroke-miterlimit:4;stroke-dasharray:none;stroke-opacity:1;filter:url(#filter1189)" />
    <g
       style="stroke:#65bd42;stroke-width:1.00157;stroke-miterlimit:4;stroke-dasharray:none;stroke-opacity:1"
       transform="matrix(0.411357,0,0,0.411357,36.894866,-4.7556874)"
       id="g69">
      <rect
         ry="73.488594"
         rx="73.488594"
         y="-22.108852"
         x="-56.192455"
         height="146.97719"
         width="146.97719"
         id="rect912"
         style="fill:#d6e7c2;fill-opacity:1;stroke:#65bd42;stroke-width:7.80472;stroke-miterlimit:4;stroke-dasharray:none;stroke-opacity:1" />
      <path
         id="path17"
         d="M 13.985121,81.976545 C 10.821579,78.262117 5.540891,74.289319 0.42665317,71.775889 -4.737342,69.23762 -9.6423278,67.82794 -15.211267,67.282808 c -1.098001,-0.106464 -2.00833,-0.205847 -2.022881,-0.220038 -0.0142,0 0.0142,-11.46411 0.07098,-25.443776 l 0.09369,-25.416803 1.013889,0.09938 c 6.2255833,0.617534 13.1741058,2.969838 18.4315112,6.24844 4.5309178,2.825035 9.2096868,7.187515 12.1926548,11.367573 l 0.750694,1.051937 v 24.143398 c 0,13.278376 -0.05679,24.140566 -0.124932,24.138437 -0.07098,-0.0023 -0.611146,-0.574942 -1.206107,-1.273396 z M 19.142302,59.051876 V 34.807677 l 1.449711,-1.937067 c 1.850965,-2.47297 5.574051,-6.198752 8.035878,-8.040705 6.580913,-4.925356 13.719592,-7.708513 21.915106,-8.546086 l 1.039727,-0.106464 v 25.452293 25.453004 l -1.206106,0.113566 c -11.411653,1.061868 -21.304955,5.77002 -29.043282,13.820661 l -2.191034,2.279907 V 59.052585 Z m 7.070396,22.596732 c 4.478958,-4.202059 10.408269,-7.541001 16.364337,-9.216853 3.116767,-0.876617 7.169912,-1.488465 9.86051,-1.488465 1.410673,0 2.193169,-0.305223 2.63452,-1.029931 0.332192,-0.546554 0.335739,-0.781504 0.336454,-21.405681 l 5.63e-4,-20.855575 0.623921,0.113567 c 0.342842,0.07098 1.316271,0.340707 2.162641,0.610434 l 1.538865,0.489767 v 26.027947 c 0,14.315409 -0.05676,26.027945 -0.127046,26.027945 -0.07096,0 -1.099425,-0.220038 -2.287502,-0.489768 -4.69488,-1.057614 -8.561275,-1.421036 -13.639099,-1.28404 -6.159146,0.170354 -10.945878,1.029224 -16.636124,2.995386 l -2.162713,0.747431 1.33089,-1.248555 z M 7.247482,82.053198 C 4.88439,81.207114 0.98172247,80.209826 -1.6528712,79.779689 -5.2351291,79.197642 -7.7065398,79.042907 -12.096985,79.140863 c -4.362337,0.09226 -7.000977,0.397486 -10.600555,1.214474 -1.006507,0.227142 -2.035871,0.461378 -2.287497,0.511062 l -0.457117,0.09938 7.8e-4,-26.097507 8.52e-4,-26.098218 1.95403,-0.567846 c 1.07465,-0.312316 2.047583,-0.603336 2.161934,-0.638827 0.165385,-0.07098 0.207973,4.180769 0.207973,20.832153 0,22.754313 -0.04969,21.485884 0.92119,22.124003 0.337867,0.220038 1.039867,0.319412 3.044577,0.440083 7.9673105,0.454273 15.527191,3.129539 21.69897,7.681535 1.33089,0.981668 4.524956,3.677515 4.708015,3.973506 0.127768,0.205847 0.04259,0.184552 -2.008188,-0.553648 z"
         style="fill:#65bd42;fill-opacity:1;stroke:none;stroke-width:7.10923" />
    </g>
  </g>
</svg>
