<?xml version="1.0" encoding="UTF-8" standalone="no"?>
<svg
   xmlns:dc="http://purl.org/dc/elements/1.1/"
   xmlns:cc="http://creativecommons.org/ns#"
   xmlns:rdf="http://www.w3.org/1999/02/22-rdf-syntax-ns#"
   xmlns:svg="http://www.w3.org/2000/svg"
   xmlns="http://www.w3.org/2000/svg"
   xmlns:sodipodi="http://sodipodi.sourceforge.net/DTD/sodipodi-0.dtd"
   xmlns:inkscape="http://www.inkscape.org/namespaces/inkscape"
   width="84.984261mm"
   height="84.942993mm"
   viewBox="0 0 84.984261 84.942993"
   version="1.1"
   id="svg8"
   inkscape:version="1.0 (4035a4fb49, 2020-05-01)"
   sodipodi:docname="status_expediente_concluido.svg">
  <defs
     id="defs2" />
  <sodipodi:namedview
     id="base"
     pagecolor="#ffffff"
     bordercolor="#666666"
     borderopacity="1.0"
     inkscape:pageopacity="0.0"
     inkscape:pageshadow="2"
     inkscape:zoom="0.98994948"
     inkscape:cx="373.73122"
     inkscape:cy="367.84801"
     inkscape:document-units="mm"
     inkscape:current-layer="layer1-3"
     inkscape:document-rotation="0"
     showgrid="false"
     showguides="true"
     inkscape:guide-bbox="true"
     inkscape:window-width="1920"
     inkscape:window-height="1017"
     inkscape:window-x="-8"
     inkscape:window-y="-8"
     inkscape:window-maximized="1"
     fit-margin-top="0"
     fit-margin-left="0"
     fit-margin-right="0"
     fit-margin-bottom="0" />
  <metadata
     id="metadata5">
    <rdf:RDF>
      <cc:Work
         rdf:about="">
        <dc:format>image/svg+xml</dc:format>
        <dc:type
           rdf:resource="http://purl.org/dc/dcmitype/StillImage" />
        <dc:title />
      </cc:Work>
    </rdf:RDF>
  </metadata>
  <g
     inkscape:label="Capa 1"
     inkscape:groupmode="layer"
     id="layer1"
     transform="translate(40.580121,64.42641)">
    <g
       inkscape:label="Capa 1"
       id="layer1-3"
       transform="translate(-71.815476,-94.494047)">
      <circle
         style="fill:none;fill-rule:evenodd;stroke:#5cb85c;stroke-width:5.56501;stroke-miterlimit:4;stroke-dasharray:none;stroke-opacity:1"
         id="circle865-7"
         cx="73.70536"
         cy="72.540627"
         r="39.6875" />
      <g
         transform="matrix(2.0575164,0,0,2.0575164,49.174648,47.205122)"
         id="g866"
         style="fill:#000000">
        <path
           d="M 0,0 H 24 V 24 H 0 Z"
           fill="none"
           id="path852" />
        <path
           style="fill:#5cb85c;fill-opacity:1"
           d="m 11,12 c 2.21,0 4,-1.79 4,-4 C 15,5.79 13.21,4 11,4 8.79,4 7,5.79 7,8 c 0,2.21 1.79,4 4,4 z m 0,-6 c 1.1,0 2,0.9 2,2 0,1.1 -0.9,2 -2,2 C 9.9,10 9,9.1 9,8 9,6.9 9.9,6 11,6 Z M 5,18 c 0.2,-0.63 2.57,-1.68 4.96,-1.94 l 2.04,-2 C 11.61,14.02 11.32,14 11,14 8.33,14 3,15.34 3,18 v 2 h 9 L 10,18 Z M 20.6,12.5 15.47,17.67 13.4,15.59 12,17 15.47,20.5 22,13.91 Z"
           id="path854" />
      </g>
    </g>
  </g>
</svg>
