<?xml version="1.0" encoding="UTF-8" standalone="no"?>
<svg
   xmlns:dc="http://purl.org/dc/elements/1.1/"
   xmlns:cc="http://creativecommons.org/ns#"
   xmlns:rdf="http://www.w3.org/1999/02/22-rdf-syntax-ns#"
   xmlns:svg="http://www.w3.org/2000/svg"
   xmlns="http://www.w3.org/2000/svg"
   xmlns:sodipodi="http://sodipodi.sourceforge.net/DTD/sodipodi-0.dtd"
   xmlns:inkscape="http://www.inkscape.org/namespaces/inkscape"
   width="84.94001mm"
   height="84.94001mm"
   viewBox="0 0 84.94001 84.94001"
   version="1.1"
   id="svg105"
   inkscape:version="1.0 (4035a4fb49, 2020-05-01)"
   sodipodi:docname="status_6.svg">
  <defs
     id="defs99" />
  <sodipodi:namedview
     id="base"
     pagecolor="#ffffff"
     bordercolor="#666666"
     borderopacity="1.0"
     inkscape:pageopacity="0.0"
     inkscape:pageshadow="2"
     inkscape:zoom="0.98994949"
     inkscape:cx="302.32399"
     inkscape:cy="222.23989"
     inkscape:document-units="mm"
     inkscape:current-layer="layer1"
     inkscape:document-rotation="0"
     showgrid="false"
     fit-margin-top="0"
     fit-margin-left="0"
     fit-margin-right="0"
     fit-margin-bottom="0"
     inkscape:window-width="1920"
     inkscape:window-height="1017"
     inkscape:window-x="-8"
     inkscape:window-y="-8"
     inkscape:window-maximized="1" />
  <metadata
     id="metadata102">
    <rdf:RDF>
      <cc:Work
         rdf:about="">
        <dc:format>image/svg+xml</dc:format>
        <dc:type
           rdf:resource="http://purl.org/dc/dcmitype/StillImage" />
        <dc:title></dc:title>
      </cc:Work>
    </rdf:RDF>
  </metadata>
  <g
     inkscape:label="Capa 1"
     inkscape:groupmode="layer"
     id="layer1"
     transform="translate(16.767624,-57.315708)">
    <circle
       style="fill:none;fill-rule:evenodd;stroke:#ff0000;stroke-width:5.56501;stroke-miterlimit:4;stroke-dasharray:none;stroke-opacity:1"
       id="circle865-7"
       cx="25.702381"
       cy="99.785713"
       r="39.6875" />
    <g
       transform="matrix(2.1911511,0,0,2.1911511,0.59618126,74.32162)"
       id="g41"
       style="fill:#000000">
      <path
         d="M 0,0 H 24 V 24 H 0 Z M 0,0 H 24 V 24 H 0 Z M 0,0 H 24 V 24 H 0 Z M 0,0 H 24 V 24 H 0 Z"
         fill="none"
         id="path27" />
      <path
         style="fill:#ff0000;fill-opacity:1"
         d="m 11.516996,6.7584983 c 2.76,0 5,2.24 5,4.9999997 0,0.65 -0.13,1.26 -0.36,1.83 l 2.92,2.92 c 1.51,-1.26 2.7,-2.89 3.43,-4.75 -1.73,-4.3899997 -6,-7.4999997 -11,-7.4999997 -1.4,0 -2.7399994,0.25 -3.9799994,0.7 l 2.16,2.16 c 0.5699994,-0.23 1.1799994,-0.36 1.8299994,-0.36 z m -9.9999994,-2.73 2.28,2.28 0.46,0.46 c -1.66,1.29 -2.96,3.01 -3.73999996,4.9899997 1.72999996,4.39 5.99999996,7.5 10.99999936,7.5 1.55,0 3.03,-0.3 4.38,-0.84 l 0.42,0.42 2.93,2.92 1.27,-1.27 L 2.7869966,2.7584983 Z m 5.53,5.53 1.55,1.5499997 c -0.05,0.21 -0.08,0.43 -0.08,0.65 0,1.66 1.3399997,3 2.9999994,3 0.22,0 0.44,-0.03 0.65,-0.08 l 1.55,1.55 c -0.67,0.33 -1.41,0.53 -2.2,0.53 -2.7599994,0 -4.9999994,-2.24 -4.9999994,-5 0,-0.79 0.2,-1.53 0.53,-2.1999997 z m 4.3099994,-0.78 3.15,3.1499997 0.02,-0.16 c 0,-1.66 -1.34,-2.9999997 -3,-2.9999997 z"
         id="path29" />
    </g>
  </g>
</svg>
