<?xml version="1.0" encoding="UTF-8" standalone="no"?>
<svg
   xmlns:dc="http://purl.org/dc/elements/1.1/"
   xmlns:cc="http://creativecommons.org/ns#"
   xmlns:rdf="http://www.w3.org/1999/02/22-rdf-syntax-ns#"
   xmlns:svg="http://www.w3.org/2000/svg"
   xmlns="http://www.w3.org/2000/svg"
   xmlns:sodipodi="http://sodipodi.sourceforge.net/DTD/sodipodi-0.dtd"
   xmlns:inkscape="http://www.inkscape.org/namespaces/inkscape"
   sodipodi:docname="status_vigente.svg"
   inkscape:version="1.0 (4035a4fb49, 2020-05-01)"
   id="svg29"
   version="1.1"
   viewBox="0 0 84.94001 84.94001"
   height="84.94001mm"
   width="84.94001mm">
  <defs
     id="defs23" />
  <sodipodi:namedview
     inkscape:window-maximized="1"
     inkscape:window-y="366"
     inkscape:window-x="1912"
     inkscape:window-height="705"
     inkscape:window-width="1366"
     fit-margin-bottom="0"
     fit-margin-right="0"
     fit-margin-left="0"
     fit-margin-top="0"
     showgrid="false"
     inkscape:document-rotation="0"
     inkscape:current-layer="layer1"
     inkscape:document-units="mm"
     inkscape:cy="169.08801"
     inkscape:cx="23.373692"
     inkscape:zoom="0.35"
     inkscape:pageshadow="2"
     inkscape:pageopacity="0.0"
     borderopacity="1.0"
     bordercolor="#666666"
     pagecolor="#ffffff"
     id="base" />
  <metadata
     id="metadata26">
    <rdf:RDF>
      <cc:Work
         rdf:about="">
        <dc:format>image/svg+xml</dc:format>
        <dc:type
           rdf:resource="http://purl.org/dc/dcmitype/StillImage" />
        <dc:title></dc:title>
      </cc:Work>
    </rdf:RDF>
  </metadata>
  <g
     transform="translate(-99.649044,-103.4288)"
     id="layer1"
     inkscape:groupmode="layer"
     inkscape:label="Capa 1">
    <circle
       r="39.6875"
       cy="145.8988"
       cx="142.11905"
       id="path10"
       style="fill:none;fill-rule:evenodd;stroke:#65bd42;stroke-width:5.56501;stroke-miterlimit:4;stroke-dasharray:none;stroke-opacity:1" />
    <g
       transform="matrix(1.8655779,0,0,1.8655779,120.42321,123.44703)"
       id="g863"
       style="fill:#000000">
      <rect
         y="0"
         x="0"
         fill="none"
         height="24"
         width="24"
         id="rect849" />
      <path
         style="fill:#65bd42;fill-opacity:1"
         d="M 22,5.18 10.59,16.6 6.35,12.36 l 1.41,-1.41 2.83,2.83 10,-10 z m -2.21,5.04 C 19.92,10.79 20,11.39 20,12 c 0,4.42 -3.58,8 -8,8 -4.42,0 -8,-3.58 -8,-8 0,-4.42 3.58,-8 8,-8 1.58,0 3.04,0.46 4.28,1.25 L 17.72,3.81 C 16.1,2.67 14.13,2 12,2 6.48,2 2,6.48 2,12 2,17.52 6.48,22 12,22 17.52,22 22,17.52 22,12 22,10.81 21.78,9.67 21.4,8.61 Z"
         id="path851" />
    </g>
  </g>
</svg>
