<?xml version="1.0" encoding="UTF-8" standalone="no"?>
<svg
   xmlns:dc="http://purl.org/dc/elements/1.1/"
   xmlns:cc="http://creativecommons.org/ns#"
   xmlns:rdf="http://www.w3.org/1999/02/22-rdf-syntax-ns#"
   xmlns:svg="http://www.w3.org/2000/svg"
   xmlns="http://www.w3.org/2000/svg"
   xmlns:sodipodi="http://sodipodi.sourceforge.net/DTD/sodipodi-0.dtd"
   xmlns:inkscape="http://www.inkscape.org/namespaces/inkscape"
   sodipodi:docname="status_cancelado.svg"
   inkscape:version="1.0 (4035a4fb49, 2020-05-01)"
   id="svg105"
   version="1.1"
   viewBox="0 0 84.94001 84.94001"
   height="84.94001mm"
   width="84.94001mm">
  <defs
     id="defs99" />
  <sodipodi:namedview
     inkscape:window-maximized="1"
     inkscape:window-y="366"
     inkscape:window-x="1912"
     inkscape:window-height="705"
     inkscape:window-width="1366"
     fit-margin-bottom="0"
     fit-margin-right="0"
     fit-margin-left="0"
     fit-margin-top="0"
     showgrid="false"
     inkscape:document-rotation="0"
     inkscape:current-layer="layer1"
     inkscape:document-units="mm"
     inkscape:cy="343.3737"
     inkscape:cx="463.3737"
     inkscape:zoom="0.35"
     inkscape:pageshadow="2"
     inkscape:pageopacity="0.0"
     borderopacity="1.0"
     bordercolor="#666666"
     pagecolor="#ffffff"
     id="base" />
  <metadata
     id="metadata102">
    <rdf:RDF>
      <cc:Work
         rdf:about="">
        <dc:format>image/svg+xml</dc:format>
        <dc:type
           rdf:resource="http://purl.org/dc/dcmitype/StillImage" />
        <dc:title></dc:title>
      </cc:Work>
    </rdf:RDF>
  </metadata>
  <g
     transform="translate(16.767624,-57.315708)"
     id="layer1"
     inkscape:groupmode="layer"
     inkscape:label="Capa 1">
    <circle
       r="39.6875"
       cy="99.785713"
       cx="25.702381"
       id="circle865-7"
       style="fill:none;fill-rule:evenodd;stroke:#ff0000;stroke-width:5.56501;stroke-miterlimit:4;stroke-dasharray:none;stroke-opacity:1" />
    <g
       transform="matrix(2.1354701,0,0,2.1354701,1.1619449,74.710718)"
       id="g951"
       style="fill:#000000">
      <path
         d="M 0,0 H 24 V 24 H 0 Z"
         fill="none"
         id="path937" />
      <path
         style="fill:#ff0000"
         d="m 12,6 c 3.87,0 7,3.13 7,7 0,0.84 -0.16,1.65 -0.43,2.4 l 1.52,1.52 C 20.67,15.73 21,14.41 21,13 21,8.03 16.97,4 12,4 10.59,4 9.27,4.33 8.08,4.91 L 9.6,6.43 C 10.35,6.16 11.16,6 12,6 Z M 22,5.72 17.4,1.86 16.11,3.39 20.71,7.25 Z M 2.92,2.29 1.65,3.57 2.98,4.9 1.87,5.83 3.29,7.25 4.4,6.31 5.2,7.11 C 3.83,8.69 3,10.75 3,13 c 0,4.97 4.02,9 9,9 2.25,0 4.31,-0.83 5.89,-2.2 L 20.09,22 21.36,20.73 3.89,3.27 Z m 13.55,16.1 C 15.26,19.39 13.7,20 12,20 8.13,20 5,16.87 5,13 5,11.3 5.61,9.74 6.61,8.53 Z M 8.02,3.28 6.6,1.86 5.74,2.57 7.16,3.99 Z"
         id="path939" />
    </g>
  </g>
</svg>
