<?xml version="1.0" encoding="UTF-8" standalone="no"?>
<svg
   xmlns:dc="http://purl.org/dc/elements/1.1/"
   xmlns:cc="http://creativecommons.org/ns#"
   xmlns:rdf="http://www.w3.org/1999/02/22-rdf-syntax-ns#"
   xmlns:svg="http://www.w3.org/2000/svg"
   xmlns="http://www.w3.org/2000/svg"
   xmlns:sodipodi="http://sodipodi.sourceforge.net/DTD/sodipodi-0.dtd"
   xmlns:inkscape="http://www.inkscape.org/namespaces/inkscape"
   sodipodi:docname="status_caduco.svg"
   inkscape:version="1.0 (4035a4fb49, 2020-05-01)"
   id="svg61"
   version="1.1"
   viewBox="0 0 84.94001 84.94001"
   height="84.94001mm"
   width="84.94001mm">
  <defs
     id="defs55" />
  <sodipodi:namedview
     inkscape:window-maximized="1"
     inkscape:window-y="366"
     inkscape:window-x="1912"
     inkscape:window-height="705"
     inkscape:window-width="1366"
     fit-margin-bottom="0"
     fit-margin-right="0"
     fit-margin-left="0"
     fit-margin-top="0"
     showgrid="false"
     inkscape:document-rotation="0"
     inkscape:current-layer="layer1"
     inkscape:document-units="mm"
     inkscape:cy="80.516574"
     inkscape:cx="386.23084"
     inkscape:zoom="0.35"
     inkscape:pageshadow="2"
     inkscape:pageopacity="0.0"
     borderopacity="1.0"
     bordercolor="#666666"
     pagecolor="#ffffff"
     id="base" />
  <metadata
     id="metadata58">
    <rdf:RDF>
      <cc:Work
         rdf:about="">
        <dc:format>image/svg+xml</dc:format>
        <dc:type
           rdf:resource="http://purl.org/dc/dcmitype/StillImage" />
        <dc:title></dc:title>
      </cc:Work>
    </rdf:RDF>
  </metadata>
  <g
     transform="translate(-3.6430893,-126.86332)"
     id="layer1"
     inkscape:groupmode="layer"
     inkscape:label="Capa 1">
    <circle
       style="fill:none;fill-rule:evenodd;stroke:#ff0000;stroke-width:5.56501;stroke-miterlimit:4;stroke-dasharray:none;stroke-opacity:1"
       id="circle865"
       cx="46.113094"
       cy="169.33333"
       r="39.6875" />
    <g
       transform="matrix(1.9795627,0,0,1.9795627,22.822063,145.41722)"
       id="g899"
       style="fill:#000000">
      <g
         id="g875">
        <path
           d="M 0,0 H 24 V 24 H 0 Z"
           fill="none"
           id="path873" />
      </g>
      <g
         id="g883">
        <g
           id="g881">
          <g
             id="g879">
            <path
               style="fill:#ff0000"
               d="M 12,2 C 6.5,2 2,6.5 2,12 2,17.5 6.5,22 12,22 17.5,22 22,17.5 22,12 22,6.5 17.5,2 12,2 Z M 4,12 c 0,-4.4 3.6,-8 8,-8 1.8,0 3.5,0.6 4.9,1.7 L 5.7,16.9 C 4.6,15.5 4,13.8 4,12 Z m 8,8 C 10.2,20 8.5,19.4 7.1,18.3 L 18.3,7.1 c 1.1,1.4 1.7,3.1 1.7,4.9 0,4.4 -3.6,8 -8,8 z"
               id="path877" />
          </g>
        </g>
      </g>
    </g>
  </g>
</svg>
